<svg width="20" height="20" viewBox="0 0 20 20" fill="none" xmlns="http://www.w3.org/2000/svg">
<path d="M14.6359 0.837311L12.3215 0.833496C9.72134 0.833496 8.04102 2.6044 8.04102 5.34535V7.42562H5.71401C5.51293 7.42562 5.3501 7.59308 5.3501 7.79964V10.8137C5.3501 11.0203 5.51312 11.1875 5.71401 11.1875H8.04102V18.793C8.04102 18.9996 8.20386 19.1668 8.40494 19.1668H11.441C11.6421 19.1668 11.8049 18.9994 11.8049 18.793V11.1875H14.5258C14.7268 11.1875 14.8897 11.0203 14.8897 10.8137L14.8908 7.79964C14.8908 7.70046 14.8524 7.60548 14.7842 7.53529C14.7161 7.4651 14.6232 7.42562 14.5267 7.42562H11.8049V5.66215C11.8049 4.81456 12.0016 4.38428 13.0764 4.38428L14.6355 4.3837C14.8364 4.3837 14.9992 4.21624 14.9992 4.00988V1.21114C14.9992 1.00496 14.8366 0.837692 14.6359 0.837311Z" fill="#787A80"/>
</svg>
