<svg width="20" height="20" viewBox="0 0 20 20" fill="none" xmlns="http://www.w3.org/2000/svg">
<path d="M9.99956 19C9.81618 19 9.6328 18.9421 9.48018 18.8262L9.03771 18.4902C4.97368 15.4106 2.52097 13.5512 1.0932 11.0705C-0.275664 8.69999 -0.111231 6.82761 0.266186 5.67502C0.726411 4.27427 1.76165 3.14698 3.18376 2.50051C3.91494 2.16915 4.70999 2 5.54409 2C7.30812 2 8.93845 2.73572 9.99974 3.94875C11.061 2.73572 12.6902 2 14.4554 2C15.2895 2 16.0834 2.168 16.8145 2.49936C18.2367 3.14585 19.2731 4.27202 19.7333 5.67387C20.1119 6.8255 20.2752 8.6977 18.9063 11.0693C17.4771 13.5499 15.021 15.4118 10.9521 18.4959L10.5202 18.8261C10.3664 18.9419 10.183 19 9.99956 19ZM5.54391 3.6637C4.95708 3.6637 4.40339 3.77956 3.89701 4.00897C2.91029 4.45734 2.19449 5.22898 1.88217 6.18364C1.48818 7.3828 1.72718 8.79049 2.57073 10.2527C3.82247 12.4274 6.02082 14.1017 9.99823 17.1175C13.9759 14.1029 16.1742 12.4265 17.4257 10.2539C18.2705 8.79058 18.5083 7.38289 18.1155 6.18364C17.8019 5.23013 17.0862 4.45734 16.0994 4.00897C15.5942 3.77957 15.0406 3.6637 14.4537 3.6637C12.8601 3.6637 11.3789 4.53034 10.7683 5.81983C10.6299 6.11412 10.3282 6.30181 9.99807 6.30181C9.66679 6.30181 9.36748 6.11412 9.22785 5.81983C8.61855 4.53031 7.13757 3.6637 5.54391 3.6637Z" fill="#13395B"/>
</svg>
