<svg width="524" height="64" viewBox="0 0 524 64" fill="none" xmlns="http://www.w3.org/2000/svg">
<rect x="0.5" y="0.5" width="119" height="63" rx="3.5" fill="#F4F5F7"/>
<path d="M54.8266 42.6849H49.0242L52.6506 20.3982H58.4536L54.8266 42.6849ZM44.1429 20.3982L38.6112 35.7272L37.9566 32.4263L37.9572 32.4274L36.0048 22.4049C36.0048 22.4049 35.7687 20.3982 33.2523 20.3982H24.1073L24 20.7756C24 20.7756 26.7966 21.3574 30.0695 23.323L35.1105 42.6855H41.1561L50.3876 20.3982H44.1429ZM89.7815 42.6849H95.1094L90.4641 20.3976H85.7998C83.6459 20.3976 83.1213 22.0585 83.1213 22.0585L74.4675 42.6849H80.5161L81.7257 39.3744H89.1019L89.7815 42.6849ZM83.3967 34.8013L86.4454 26.4611L88.1606 34.8013H83.3967ZM74.9212 25.7577L75.7492 20.9717C75.7492 20.9717 73.1941 20 70.5305 20C67.6511 20 60.8132 21.2585 60.8132 27.378C60.8132 33.1357 68.8386 33.2072 68.8386 36.2315C68.8386 39.2558 61.64 38.7139 59.2644 36.8068L58.4017 41.8109C58.4017 41.8109 60.9926 43.0694 64.9511 43.0694C68.9107 43.0694 74.8842 41.0192 74.8842 35.4392C74.8842 29.6446 66.7866 29.1051 66.7866 26.5857C66.7872 24.0658 72.4382 24.3895 74.9212 25.7577Z" fill="#2566AF"/>
<path d="M37.9572 32.4267L36.0048 22.4041C36.0048 22.4041 35.7687 20.3975 33.2523 20.3975H24.1073L24 20.7748C24 20.7748 28.3955 21.6858 32.6115 25.0987C36.6427 28.3609 37.9572 32.4267 37.9572 32.4267Z" fill="#E6A540"/>
<rect x="0.5" y="0.5" width="119" height="63" rx="3.5" stroke="#D7DADD"/>
<rect x="202.5" y="0.5" width="119" height="63" rx="3.5" fill="#F4F5F7"/>
<path d="M288.199 52.4262V52.5341H288.3C288.319 52.5344 288.338 52.5297 288.354 52.5204C288.361 52.5157 288.366 52.5095 288.369 52.5023C288.373 52.4951 288.375 52.4871 288.374 52.4791C288.375 52.4712 288.373 52.4634 288.369 52.4563C288.366 52.4493 288.361 52.4433 288.354 52.4388C288.338 52.4291 288.319 52.4243 288.3 52.4251H288.199V52.4262ZM288.301 52.3498C288.344 52.3471 288.387 52.3595 288.422 52.3849C288.436 52.3964 288.447 52.411 288.455 52.4276C288.462 52.4442 288.465 52.4623 288.464 52.4804C288.465 52.496 288.462 52.5116 288.456 52.5261C288.451 52.5405 288.442 52.5536 288.43 52.5643C288.403 52.5878 288.369 52.6019 288.334 52.6046L288.469 52.7584H288.365L288.241 52.6056H288.2V52.7584H288.114V52.35H288.302L288.301 52.3498ZM288.274 52.8993C288.32 52.8997 288.365 52.8905 288.407 52.8723C288.447 52.855 288.484 52.8301 288.515 52.7992C288.546 52.7682 288.571 52.7316 288.588 52.6912C288.623 52.6057 288.623 52.5095 288.588 52.424C288.57 52.3838 288.545 52.3472 288.515 52.316C288.484 52.2851 288.447 52.2603 288.407 52.2429C288.365 52.2257 288.32 52.217 288.274 52.2175C288.228 52.2171 288.182 52.2257 288.139 52.2429C288.098 52.2599 288.061 52.2848 288.029 52.316C287.981 52.365 287.949 52.427 287.936 52.4941C287.923 52.5613 287.93 52.6308 287.957 52.6939C287.973 52.7344 287.998 52.7711 288.029 52.8019C288.061 52.8331 288.098 52.858 288.139 52.875C288.182 52.8932 288.228 52.9024 288.274 52.902V52.8993ZM288.274 52.1193C288.393 52.1192 288.507 52.1657 288.591 52.2488C288.632 52.2888 288.665 52.3364 288.687 52.3889C288.71 52.4429 288.722 52.5009 288.722 52.5596C288.722 52.6183 288.71 52.6764 288.687 52.7303C288.664 52.7826 288.632 52.8301 288.591 52.8704C288.55 52.9101 288.502 52.9421 288.449 52.9649C288.394 52.9884 288.334 53.0003 288.274 53C288.213 53.0004 288.153 52.9885 288.097 52.9649C288.044 52.9426 287.995 52.9106 287.954 52.8704C287.913 52.8286 287.881 52.7795 287.86 52.7257C287.837 52.6718 287.825 52.6137 287.825 52.555C287.825 52.4964 287.837 52.4383 287.86 52.3843C287.882 52.3318 287.914 52.2842 287.955 52.2443C287.996 52.2034 288.045 52.1712 288.098 52.1498C288.154 52.1262 288.215 52.1143 288.275 52.1147L288.274 52.1193ZM246.948 50.5423C246.948 49.7636 247.458 49.124 248.292 49.124C249.088 49.124 249.626 49.7361 249.626 50.5423C249.626 51.3485 249.088 51.9606 248.292 51.9606C247.458 51.9606 246.948 51.3209 246.948 50.5423ZM250.534 50.5423V48.3265H249.571V48.8662C249.265 48.4673 248.802 48.2172 248.172 48.2172C246.93 48.2172 245.956 49.1909 245.956 50.5434C245.956 51.8958 246.93 52.8696 248.172 52.8696C248.802 52.8696 249.265 52.6191 249.571 52.2205V52.7584H250.533V50.5423H250.534ZM283.081 50.5423C283.081 49.7636 283.591 49.124 284.425 49.124C285.223 49.124 285.76 49.7361 285.76 50.5423C285.76 51.3485 285.223 51.9606 284.425 51.9606C283.592 51.9606 283.081 51.3209 283.081 50.5423ZM286.669 50.5423V46.5479H285.705V48.8662C285.399 48.4673 284.936 48.2172 284.306 48.2172C283.064 48.2172 282.09 49.1909 282.09 50.5434C282.09 51.8958 283.064 52.8696 284.306 52.8696C284.936 52.8696 285.399 52.6191 285.705 52.2205V52.7584H286.669V50.5423ZM262.489 49.0784C263.11 49.0784 263.509 49.4676 263.611 50.1528H261.312C261.415 49.5132 261.803 49.0784 262.49 49.0784H262.489ZM262.509 48.2147C261.211 48.2147 260.303 49.1594 260.303 50.5409C260.303 51.9495 261.247 52.8672 262.573 52.8672C263.241 52.8672 263.852 52.7006 264.389 52.2464L263.917 51.5325C263.546 51.8294 263.073 51.9959 262.628 51.9959C262.008 51.9959 261.443 51.7085 261.304 50.911H264.593C264.602 50.7911 264.612 50.6702 264.612 50.5407C264.602 49.1596 263.748 48.2145 262.508 48.2145L262.509 48.2147ZM274.138 50.5407C274.138 49.762 274.648 49.1224 275.482 49.1224C276.279 49.1224 276.816 49.7345 276.816 50.5407C276.816 51.3469 276.279 51.959 275.482 51.959C274.648 51.959 274.138 51.3193 274.138 50.5407H274.138ZM277.724 50.5407V48.3265H276.762V48.8662C276.455 48.4673 275.993 48.2172 275.362 48.2172C274.121 48.2172 273.147 49.1909 273.147 50.5434C273.147 51.8958 274.12 52.8696 275.362 52.8696C275.993 52.8696 276.455 52.6191 276.762 52.2205V52.7584H277.724V50.5423L277.724 50.5407ZM268.698 50.5407C268.698 51.8845 269.634 52.8669 271.062 52.8669C271.729 52.8669 272.173 52.7185 272.654 52.3387L272.191 51.5601C271.83 51.82 271.45 51.959 271.031 51.959C270.262 51.9495 269.696 51.3935 269.696 50.5407C269.696 49.6878 270.262 49.1321 271.031 49.1224C271.449 49.1224 271.829 49.2614 272.191 49.5213L272.654 48.7426C272.172 48.3629 271.728 48.2145 271.062 48.2145C269.634 48.2145 268.698 49.1966 268.698 50.5407ZM281.116 48.2145C280.561 48.2145 280.199 48.4744 279.948 48.8636V48.3265H278.994V52.756H279.958V50.2729C279.958 49.5399 280.273 49.1326 280.903 49.1326C281.109 49.1297 281.314 49.1675 281.505 49.2441L281.802 48.3362C281.589 48.2522 281.311 48.2153 281.116 48.2153L281.116 48.2145ZM255.297 48.6787C254.833 48.3732 254.195 48.2153 253.49 48.2153C252.368 48.2153 251.645 48.7532 251.645 49.6333C251.645 50.3555 252.183 50.8011 253.174 50.9401L253.629 51.0049C254.157 51.0791 254.406 51.2181 254.406 51.4683C254.406 51.8108 254.056 52.0062 253.397 52.0062C252.73 52.0062 252.248 51.793 251.923 51.5428L251.471 52.2939C251.999 52.6831 252.666 52.8688 253.389 52.8688C254.668 52.8688 255.409 52.2664 255.409 51.423C255.409 50.6443 254.826 50.237 253.862 50.098L253.408 50.0322C252.991 49.9782 252.657 49.8943 252.657 49.5974C252.657 49.2735 252.972 49.0787 253.5 49.0787C254.066 49.0787 254.613 49.2919 254.881 49.4584L255.298 48.6798L255.297 48.6787ZM267.725 48.2161C267.17 48.2161 266.808 48.476 266.559 48.8652V48.3265H265.604V52.756H266.567V50.2729C266.567 49.5399 266.882 49.1326 267.512 49.1326C267.718 49.1297 267.923 49.1675 268.114 49.2441L268.411 48.3362C268.198 48.2522 267.92 48.2153 267.725 48.2153L267.725 48.2161ZM259.506 48.3265H257.93V46.9827H256.957V48.3265H256.058V49.2069H256.957V51.2276C256.957 52.2553 257.356 52.8674 258.495 52.8674C258.913 52.8674 259.395 52.7379 259.7 52.5249L259.422 51.7001C259.134 51.8667 258.819 51.9506 258.569 51.9506C258.087 51.9506 257.93 51.6537 257.93 51.2092V49.2077H259.506V48.3265ZM245.104 52.7571V49.9771C245.104 48.9302 244.437 48.2258 243.361 48.2163C242.796 48.2069 242.213 48.3829 241.804 49.0044C241.499 48.5132 241.017 48.2163 240.341 48.2163C239.867 48.2163 239.405 48.3553 239.043 48.8741V48.3265H238.079V52.756H239.051V50.2999C239.051 49.531 239.477 49.1224 240.136 49.1224C240.775 49.1224 241.099 49.5394 241.099 50.2902V52.7554H242.073V50.2994C242.073 49.5305 242.517 49.1218 243.157 49.1218C243.814 49.1218 244.128 49.5388 244.128 50.2897V52.7549L245.104 52.7571Z" fill="#231F20"/>
<path d="M288.75 38.0223V37.3745H288.581L288.386 37.819L288.192 37.3745H288.023V38.0223H288.142V37.5343L288.325 37.9553H288.449L288.631 37.5332V38.0223H288.75H288.75ZM287.68 38.0223V37.4854H287.895V37.3761H287.344V37.4854H287.56V38.0223H287.678H287.68Z" fill="#F79410"/>
<path d="M269.578 40.8007H254.98V14.5669H269.578L269.578 40.8007Z" fill="#FF5F00"/>
<path d="M255.905 27.6841C255.905 22.3626 258.397 17.6222 262.277 14.5672C259.34 12.2514 255.707 10.9945 251.967 11C242.754 11 235.285 18.4696 235.285 27.6841C235.285 36.8986 242.754 44.3682 251.967 44.3682C255.707 44.3738 259.34 43.1169 262.277 40.801C258.397 37.7466 255.905 33.0059 255.905 27.6841Z" fill="#EB001B"/>
<path d="M289.271 27.6841C289.271 36.8986 281.802 44.3682 272.589 44.3682C268.848 44.3737 265.215 43.1168 262.277 40.801C266.158 37.7461 268.65 33.0059 268.65 27.6841C268.65 22.3623 266.158 17.6222 262.277 14.5672C265.215 12.2514 268.848 10.9946 272.588 11C281.802 11 289.27 18.4696 289.27 27.6841" fill="#F79E1B"/>
<rect x="202.5" y="0.5" width="119" height="63" rx="3.5" stroke="#D7DADD"/>
<rect x="404.5" y="0.5" width="119" height="63" rx="3.5" fill="#F4F5F7"/>
<path d="M439.275 23.3814C438.358 22.3372 436.702 21.8895 434.584 21.8895H428.436C428.226 21.8894 428.023 21.9642 427.863 22.1003C427.704 22.2364 427.598 22.425 427.565 22.6322L425.006 38.8698C424.995 38.9452 424.999 39.0222 425.02 39.0956C425.041 39.1689 425.077 39.2369 425.127 39.2949C425.176 39.3528 425.238 39.3993 425.307 39.4312C425.376 39.4631 425.452 39.4796 425.528 39.4795H429.324L430.277 33.4328L430.248 33.6222C430.28 33.4155 430.385 33.2271 430.544 33.0909C430.702 32.9548 430.905 32.8798 431.114 32.8796H432.918C436.461 32.8796 439.236 31.4403 440.046 27.2767C440.07 27.1536 440.091 27.0338 440.109 26.9166C440.35 25.3778 440.107 24.3303 439.275 23.3819" fill="#003087"/>
<path d="M485.744 31.1075C485.512 32.6311 484.349 32.6311 483.223 32.6311H482.583L483.032 29.7864C483.06 29.6146 483.208 29.4882 483.382 29.4882H483.675C484.442 29.4882 485.165 29.4882 485.538 29.9244C485.761 30.1854 485.828 30.5729 485.744 31.1075ZM485.254 27.1322H481.01C480.869 27.1323 480.733 27.1825 480.626 27.2738C480.519 27.365 480.449 27.4914 480.426 27.6303L478.711 38.5136C478.703 38.564 478.707 38.6156 478.72 38.6647C478.734 38.7139 478.759 38.7594 478.792 38.7982C478.825 38.8371 478.866 38.8683 478.913 38.8897C478.959 38.9111 479.009 38.9223 479.06 38.9224H481.239C481.442 38.9224 481.614 38.7746 481.646 38.5743L482.133 35.4878C482.178 35.2016 482.426 34.9898 482.716 34.9898H484.059C486.855 34.9898 488.468 33.6375 488.89 30.9554C489.08 29.7832 488.897 28.8616 488.348 28.2164C487.745 27.5071 486.675 27.1317 485.255 27.1317" fill="#009CDE"/>
<path d="M455.47 31.1076C455.238 32.6312 454.074 32.6312 452.949 32.6312H452.308L452.758 29.7865C452.785 29.6147 452.933 29.4883 453.107 29.4883H453.401C454.167 29.4883 454.89 29.4883 455.263 29.9245C455.487 30.1855 455.554 30.573 455.47 31.1076ZM454.98 27.1323H450.735C450.445 27.1323 450.198 27.3436 450.153 27.6304L448.437 38.5137C448.429 38.5641 448.432 38.6157 448.446 38.6649C448.46 38.7141 448.484 38.7597 448.517 38.7985C448.551 38.8374 448.592 38.8686 448.638 38.89C448.685 38.9114 448.735 38.9225 448.786 38.9225H450.813C451.103 38.9225 451.35 38.7112 451.395 38.4245L451.859 35.4884C451.904 35.2017 452.151 34.9904 452.441 34.9904H453.784C456.581 34.9904 458.194 33.6376 458.615 30.9555C458.805 29.7833 458.623 28.8617 458.074 28.2165C457.471 27.5072 456.401 27.1318 454.981 27.1318L454.98 27.1323ZM464.834 35.015C464.637 36.1763 463.716 36.9562 462.54 36.9562C461.951 36.9562 461.479 36.7663 461.175 36.4073C460.874 36.0516 460.762 35.5442 460.857 34.98C461.04 33.8286 461.977 33.0241 463.135 33.0241C463.712 33.0241 464.18 33.2157 464.49 33.5779C464.801 33.943 464.924 34.453 464.834 35.015ZM467.667 31.0584H465.635C465.55 31.0583 465.468 31.0884 465.404 31.1433C465.34 31.1982 465.297 31.2742 465.284 31.3577L465.196 31.9258L465.053 31.72C464.613 31.0814 463.632 30.8674 462.653 30.8674C460.407 30.8674 458.489 32.5694 458.116 34.9554C457.921 36.1468 458.197 37.2845 458.873 38.0786C459.493 38.8081 460.378 39.1118 461.432 39.1118C463.242 39.1118 464.246 37.9494 464.246 37.9494L464.155 38.5142C464.147 38.5647 464.15 38.6164 464.164 38.6656C464.178 38.7148 464.203 38.7604 464.236 38.7993C464.269 38.8382 464.31 38.8693 464.357 38.8907C464.403 38.9121 464.454 38.9231 464.505 38.923H466.335C466.625 38.923 466.872 38.7123 466.918 38.425L468.017 31.4677C468.025 31.4172 468.022 31.3655 468.008 31.3163C467.994 31.2671 467.969 31.2215 467.936 31.1826C467.903 31.1438 467.861 31.1126 467.815 31.0912C467.768 31.0699 467.718 31.0589 467.666 31.0589" fill="#003087"/>
<path d="M495.108 35.0155C494.911 36.1768 493.99 36.9567 492.813 36.9567C492.224 36.9567 491.752 36.7668 491.449 36.4078C491.148 36.052 491.035 35.5447 491.13 34.9805C491.313 33.8291 492.249 33.0246 493.408 33.0246C493.985 33.0246 494.453 33.2162 494.763 33.5784C495.074 33.9435 495.197 34.4535 495.108 35.0155ZM497.94 31.0589H495.908C495.823 31.0588 495.741 31.0889 495.677 31.1438C495.613 31.1987 495.571 31.2747 495.557 31.3582L495.469 31.9263L495.327 31.7205C494.887 31.0818 493.905 30.8679 492.926 30.8679C490.681 30.8679 488.763 32.5698 488.389 34.9559C488.195 36.1473 488.471 37.285 489.146 38.0791C489.766 38.8086 490.651 39.1123 491.706 39.1123C493.517 39.1123 494.52 37.9499 494.52 37.9499L494.43 38.5147C494.421 38.5652 494.424 38.6168 494.438 38.666C494.452 38.7152 494.476 38.7609 494.509 38.7997C494.542 38.8386 494.584 38.8699 494.63 38.8912C494.677 38.9126 494.727 38.9236 494.778 38.9235H496.608C496.898 38.9235 497.145 38.7128 497.191 38.4255L498.29 31.4682C498.298 31.4177 498.295 31.366 498.281 31.3168C498.267 31.2676 498.242 31.222 498.209 31.1831C498.176 31.1443 498.134 31.1131 498.088 31.0917C498.041 31.0704 497.991 31.0594 497.94 31.0594" fill="#009CDE"/>
<path d="M478.494 31.0592H476.451C476.255 31.0592 476.073 31.1561 475.964 31.3181L473.145 35.4685L471.951 31.4801C471.914 31.3584 471.839 31.2517 471.738 31.1758C471.636 31.0999 471.512 31.0589 471.385 31.0587H469.377C469.321 31.0587 469.266 31.0722 469.215 31.0979C469.165 31.1237 469.122 31.161 469.089 31.2068C469.057 31.2526 469.035 31.3056 469.027 31.3613C469.019 31.417 469.024 31.4738 469.042 31.5271L471.292 38.1303L469.176 41.1156C469.139 41.1686 469.116 41.2309 469.112 41.2956C469.108 41.3603 469.121 41.4249 469.151 41.4825C469.181 41.5401 469.226 41.5884 469.281 41.6222C469.336 41.6559 469.4 41.6738 469.465 41.6738H471.506C471.699 41.6738 471.88 41.5792 471.99 41.4204L478.784 31.6147C478.821 31.5617 478.843 31.4996 478.847 31.4351C478.851 31.3707 478.837 31.3064 478.807 31.2491C478.777 31.1919 478.732 31.1439 478.677 31.1104C478.622 31.077 478.559 31.0592 478.494 31.0592Z" fill="#003087"/>
<path d="M500.337 27.4325L498.594 38.515C498.586 38.5655 498.589 38.6171 498.603 38.6663C498.617 38.7155 498.642 38.7611 498.675 38.7999C498.708 38.8388 498.749 38.8699 498.796 38.8913C498.842 38.9127 498.893 38.9238 498.944 38.9238H500.696C500.986 38.9238 501.233 38.7126 501.278 38.4258L502.996 27.542C503.004 27.4915 503.001 27.4398 502.987 27.3906C502.973 27.3414 502.949 27.2958 502.916 27.2569C502.882 27.218 502.841 27.1868 502.795 27.1655C502.748 27.1441 502.698 27.1331 502.647 27.1332H500.686C500.602 27.133 500.52 27.163 500.456 27.2178C500.392 27.2726 500.35 27.3486 500.337 27.432" fill="#009CDE"/>
<path d="M439.275 23.3814C438.358 22.3372 436.702 21.8895 434.584 21.8895H428.436C428.226 21.8894 428.023 21.9642 427.863 22.1003C427.704 22.2364 427.598 22.425 427.565 22.6322L425.006 38.8698C424.995 38.9452 424.999 39.0222 425.02 39.0956C425.041 39.1689 425.077 39.2369 425.127 39.2949C425.176 39.3528 425.238 39.3993 425.307 39.4312C425.376 39.4631 425.452 39.4796 425.528 39.4795H429.324L430.277 33.4328L430.248 33.6222C430.28 33.4155 430.385 33.2271 430.544 33.0909C430.702 32.9548 430.905 32.8798 431.114 32.8796H432.918C436.461 32.8796 439.236 31.4403 440.046 27.2767C440.07 27.1536 440.091 27.0338 440.109 26.9166C440.35 25.3778 440.107 24.3303 439.275 23.3819" fill="#003087"/>
<path d="M431.302 26.937C431.33 26.756 431.423 26.5912 431.562 26.4721C431.701 26.3531 431.879 26.2876 432.062 26.2874H436.882C437.453 26.2874 437.985 26.3246 438.472 26.4023C438.738 26.4451 439.001 26.5039 439.26 26.5785C439.554 26.6612 439.838 26.7745 440.109 26.9167C440.351 25.3773 440.108 24.3304 439.275 23.3814C438.358 22.3378 436.703 21.8902 434.585 21.8902H428.436C428.226 21.8903 428.024 21.9652 427.864 22.1013C427.705 22.2374 427.599 22.4258 427.567 22.6328L425.007 38.8688C424.995 38.9441 424.999 39.0212 425.02 39.0946C425.04 39.168 425.077 39.236 425.126 39.294C425.176 39.352 425.237 39.3986 425.307 39.4305C425.376 39.4625 425.451 39.479 425.528 39.479H429.324L430.277 33.4318L431.302 26.937Z" fill="#003087"/>
<path d="M440.109 26.9159C440.091 27.0363 440.07 27.1564 440.046 27.276C439.236 31.439 436.461 32.8789 432.918 32.8789H431.114C430.904 32.879 430.702 32.9539 430.543 33.0901C430.385 33.2263 430.28 33.4148 430.248 33.6215L429.324 39.4782L429.061 41.1397C429.051 41.2057 429.055 41.2731 429.073 41.3374C429.091 41.4017 429.123 41.4612 429.166 41.512C429.21 41.5628 429.264 41.6035 429.324 41.6315C429.385 41.6594 429.451 41.6739 429.518 41.6738H432.718C433.096 41.6738 433.418 41.398 433.478 41.0242L433.509 40.8612L434.112 37.0391L434.15 36.8279C434.179 36.6467 434.271 36.4818 434.411 36.3627C434.55 36.2436 434.728 36.1782 434.911 36.1783H435.39C438.489 36.1783 440.917 34.9196 441.626 31.277C441.921 29.7557 441.768 28.4844 440.986 27.5918C440.737 27.3151 440.44 27.086 440.109 26.9159Z" fill="#009CDE"/>
<path d="M439.259 26.5789C439.135 26.5422 439.008 26.5094 438.876 26.4804C438.745 26.4514 438.609 26.4256 438.47 26.4037C437.983 26.3244 437.451 26.2872 436.88 26.2872H432.06C431.877 26.287 431.699 26.3524 431.56 26.4716C431.42 26.5909 431.328 26.7561 431.3 26.9373L430.276 33.4333L430.246 33.6221C430.278 33.4154 430.383 33.2269 430.542 33.0907C430.7 32.9545 430.903 32.8796 431.112 32.8794H432.916C436.46 32.8794 439.234 31.4402 440.045 27.2766C440.069 27.1535 440.089 27.0342 440.108 26.9165C439.894 26.8045 439.671 26.7104 439.441 26.6352C439.381 26.6155 439.321 26.5969 439.259 26.5783" fill="#012169"/>
<rect x="404.5" y="0.5" width="119" height="63" rx="3.5" stroke="#D7DADD"/>
</svg>
