<svg width="20" height="20" viewBox="0 0 20 20" fill="none" xmlns="http://www.w3.org/2000/svg">
<path d="M10.2512 0.833496C5.19014 0.83426 2.5 4.0541 2.5 7.56498C2.5 9.19285 3.4162 11.2241 4.8832 11.868C5.30168 12.0552 5.24629 11.8268 5.60631 10.4594C5.63478 10.3456 5.62016 10.247 5.52785 10.1408C3.43082 7.73227 5.1186 2.78068 9.95192 2.78068C16.9469 2.78068 15.6399 12.3921 11.1689 12.3921C10.0165 12.3921 9.15803 11.4937 9.42959 10.3822C9.75883 9.0584 10.4035 7.63526 10.4035 6.68115C10.4035 4.27639 6.7956 4.63313 6.7956 7.81936C6.7956 8.80403 7.14639 9.46862 7.14639 9.46862C7.14639 9.46862 5.98556 14.1253 5.77017 14.9954C5.40553 16.4682 5.8194 18.8524 5.85556 19.0578C5.87787 19.1709 6.00556 19.2068 6.07711 19.1136C6.19173 18.9647 7.59488 16.977 7.98797 15.5401C8.13106 15.0168 8.71801 12.8932 8.71801 12.8932C9.10495 13.5868 10.2204 14.1674 11.4089 14.1674C14.9445 14.1674 17.5 11.0812 17.5 7.25178C17.4877 3.58048 14.3237 0.833496 10.2512 0.833496V0.833496Z" fill="#787A80"/>
</svg>
