<svg width="32" height="32" viewBox="0 0 32 32" fill="none" xmlns="http://www.w3.org/2000/svg">
<path fill-rule="evenodd" clip-rule="evenodd" d="M21.4234 13.8815C22.8199 14.9488 22.8199 17.0516 21.4234 18.1189L15.3168 22.7862C13.562 24.1273 11.0308 22.8761 11.0308 20.6675V11.333C11.0308 9.12434 13.562 7.87308 15.3168 9.21426L21.4234 13.8815ZM19.8041 16.0002L13.6975 11.333L13.6975 20.6675L19.8041 16.0002Z" fill="white"/>
<path fill-rule="evenodd" clip-rule="evenodd" d="M15.9997 4.00016C9.37226 4.00016 3.99967 9.37274 3.99967 16.0002C3.99967 22.6276 9.37226 28.0002 15.9997 28.0002C22.6271 28.0002 27.9997 22.6276 27.9997 16.0002C27.9997 9.37274 22.6271 4.00016 15.9997 4.00016ZM1.33301 16.0002C1.33301 7.89999 7.8995 1.3335 15.9997 1.3335C24.0999 1.3335 30.6663 7.89999 30.6663 16.0002C30.6663 24.1003 24.0999 30.6668 15.9997 30.6668C7.8995 30.6668 1.33301 24.1003 1.33301 16.0002Z" fill="white"/>
</svg>
