<svg width="16" height="16" viewBox="0 0 16 16" fill="none" xmlns="http://www.w3.org/2000/svg">
<path fill-rule="evenodd" clip-rule="evenodd" d="M2.0944 2.00518C2.02929 2.00028 1.93894 1.99984 1.7695 1.99984H0.666667C0.298477 1.99984 0 1.70136 0 1.33317C0 0.964984 0.298477 0.666507 0.666667 0.666507H1.7695C1.77578 0.666507 1.78207 0.666506 1.78835 0.666505C1.93146 0.666488 2.07315 0.66647 2.19458 0.67562C2.32971 0.685801 2.4867 0.709715 2.64911 0.782161C2.87767 0.884118 3.07293 1.04835 3.21254 1.25606C3.31174 1.40366 3.3622 1.55423 3.39538 1.68561C3.4252 1.80368 3.44946 1.94328 3.47397 2.08427C3.47504 2.09046 3.47612 2.09666 3.4772 2.10285L3.63605 3.01623L12.312 3.27305C12.652 3.2831 12.9458 3.29179 13.1878 3.31844C13.4436 3.34661 13.6971 3.39957 13.9404 3.52916C14.309 3.72552 14.6068 4.03233 14.7922 4.40655C14.9145 4.65352 14.96 4.90854 14.9805 5.16503C15 5.40768 15 5.70161 15 6.04174V6.09091C15 6.41056 15 6.68783 14.9821 6.91776C14.9631 7.1616 14.9213 7.40379 14.8095 7.6411C14.6395 8.00231 14.3653 8.30436 14.0221 8.50839C13.7967 8.64244 13.5597 8.70745 13.3188 8.74984C13.0917 8.7898 12.8157 8.8165 12.4975 8.84728L6.00826 9.47527C5.68213 9.50685 5.39956 9.5342 5.16381 9.53835C4.91403 9.54274 4.6636 9.52334 4.41219 9.43098C4.03514 9.29247 3.70854 9.04364 3.47491 8.71688C3.31913 8.499 3.23395 8.26271 3.17188 8.02072C3.1133 7.79233 3.06467 7.51264 3.00854 7.18984L2.16358 2.3313C2.13455 2.16437 2.11864 2.07542 2.10265 2.01212C2.10208 2.00987 2.10153 2.00773 2.101 2.00571C2.09891 2.00553 2.09672 2.00536 2.0944 2.00518ZM3.86923 4.35705L4.31796 6.93724C4.3795 7.29107 4.4195 7.51826 4.46341 7.68946C4.50529 7.85275 4.53842 7.91187 4.55953 7.94139C4.6374 8.05031 4.74627 8.13326 4.87195 8.17943C4.90602 8.19194 4.97181 8.20819 5.14036 8.20522C5.31708 8.20211 5.54674 8.18037 5.90421 8.14578L12.3451 7.52247C12.6941 7.4887 12.9178 7.46657 13.0877 7.43668C13.2495 7.40821 13.3099 7.38065 13.3407 7.36234C13.4551 7.29433 13.5465 7.19364 13.6032 7.07324C13.6184 7.04081 13.6401 6.97804 13.6528 6.81425C13.6662 6.6423 13.6667 6.41742 13.6667 6.06684C13.6667 5.69451 13.6662 5.4546 13.6515 5.27171C13.6374 5.09671 13.6136 5.0311 13.5974 4.99838C13.5356 4.87364 13.4363 4.77136 13.3135 4.70591C13.2812 4.68874 13.2164 4.66298 13.0418 4.64376C12.8595 4.62367 12.6197 4.61607 12.2475 4.60506L3.86923 4.35705Z" fill="white"/>
<path fill-rule="evenodd" clip-rule="evenodd" d="M5.66667 11.6665C5.29848 11.6665 5 11.965 5 12.3332C5 12.7014 5.29848 12.9998 5.66667 12.9998C6.03486 12.9998 6.33333 12.7014 6.33333 12.3332C6.33333 11.965 6.03486 11.6665 5.66667 11.6665ZM3.66667 12.3332C3.66667 11.2286 4.5621 10.3332 5.66667 10.3332C6.77124 10.3332 7.66667 11.2286 7.66667 12.3332C7.66667 13.4377 6.77124 14.3332 5.66667 14.3332C4.5621 14.3332 3.66667 13.4377 3.66667 12.3332Z" fill="white"/>
<path fill-rule="evenodd" clip-rule="evenodd" d="M12 11.6665C11.6318 11.6665 11.3333 11.965 11.3333 12.3332C11.3333 12.7014 11.6318 12.9998 12 12.9998C12.3682 12.9998 12.6667 12.7014 12.6667 12.3332C12.6667 11.965 12.3682 11.6665 12 11.6665ZM10 12.3332C10 11.2286 10.8954 10.3332 12 10.3332C13.1046 10.3332 14 11.2286 14 12.3332C14 13.4377 13.1046 14.3332 12 14.3332C10.8954 14.3332 10 13.4377 10 12.3332Z" fill="white"/>
</svg>
