<svg width="59" height="46" viewBox="0 0 59 46" fill="none" xmlns="http://www.w3.org/2000/svg">
<path opacity="0.2" d="M27.1549 33.5333C27.1613 35.1329 26.8299 36.7151 26.1833 38.1713C25.5367 39.6275 24.5902 40.9235 23.4088 41.9703C20.8736 44.3386 17.5418 45.6112 14.1109 45.5216C9.7554 45.5216 6.31645 43.9697 3.79405 40.8659C1.27429 37.7796 -0.0719797 33.8656 0.0029689 29.8441C0.0029689 20.2156 2.58281 12.97 7.74248 8.10722C12.9021 3.24442 18.6137 0.552248 24.8773 0.0306866V10.5923C21.7209 10.9364 18.7327 12.2219 16.2837 14.2893C15.0233 15.2546 13.985 16.4911 13.242 17.9117C12.4989 19.3324 12.0692 20.9025 11.9831 22.5115C13.0233 21.9928 14.1676 21.7301 15.3246 21.7445C19.0658 21.7445 21.9728 22.8311 24.0456 25.0043C25.0927 26.1422 25.9071 27.4829 26.4411 28.9476C26.975 30.4122 27.2177 31.9713 27.1549 33.5333ZM58.997 33.5333C59.0049 35.1332 58.6741 36.7158 58.0274 38.1723C57.3807 39.6287 56.4335 40.9245 55.2509 41.9703C52.7157 44.3386 49.3839 45.6112 45.953 45.5216C41.6075 45.5216 38.196 43.9697 35.7186 40.8659C33.2291 37.765 31.9009 33.8572 31.9724 29.8441C31.9724 20.2156 34.5248 12.97 39.6295 8.10722C44.7343 3.24442 50.4384 0.542015 56.7419 0V10.5616C53.5924 10.9191 50.6147 12.2152 48.1782 14.2893C46.9084 15.2489 45.8607 16.4831 45.1097 17.9042C44.3586 19.3253 43.9226 20.8984 43.8327 22.5115C44.8702 21.9926 46.0121 21.7299 47.1668 21.7445C50.9029 21.7445 53.8099 22.8311 55.8877 25.0043C56.9349 26.1419 57.7488 27.4827 58.2816 28.9475C58.8143 30.4124 59.055 31.9717 58.9895 33.5333H58.997Z" fill="#CEEFF0"/>
</svg>
