<svg width="14" height="14" viewBox="0 0 14 14" fill="none" xmlns="http://www.w3.org/2000/svg">
<path fill-rule="evenodd" clip-rule="evenodd" d="M5.93172 1.28444C6.33699 0.34985 7.66236 0.349849 8.06763 1.28444L9.29357 4.11156L12.3612 4.40387C13.3752 4.5005 13.7848 5.76101 13.0212 6.43524L10.7113 8.47481L11.3812 11.4826C11.6027 12.4769 10.5304 13.2559 9.65322 12.7381L6.99967 11.1715L4.34612 12.7381C3.46892 13.2559 2.39667 12.4769 2.61813 11.4826L3.28807 8.47481L0.97815 6.43525C0.214541 5.76101 0.624103 4.5005 1.63818 4.40387L4.70578 4.11156L5.93172 1.28444ZM8.22561 4.57467L6.99967 1.74754L5.77373 4.57467C5.60506 4.96364 5.23825 5.23014 4.8162 5.27036L1.7486 5.56266L4.05853 7.60223C4.37634 7.88285 4.51644 8.31406 4.42427 8.72789L3.75433 11.7357L6.40788 10.1691C6.77297 9.95352 7.22638 9.95352 7.59146 10.1691L10.245 11.7357L9.57508 8.72789C9.4829 8.31406 9.62301 7.88285 9.94082 7.60223L12.2507 5.56266L9.18315 5.27036C8.7611 5.23014 8.39428 4.96363 8.22561 4.57467Z" fill="#B3B7BC"/>
</svg>
