<svg width="161" height="31" viewBox="0 0 161 31" fill="none" xmlns="http://www.w3.org/2000/svg">
<circle cx="15.0466" cy="15.0466" r="14.5466" fill="white" stroke="#13395B"/>
<path fill-rule="evenodd" clip-rule="evenodd" d="M13.4363 11.9424H15.7648V13.1022C16.1002 12.4351 16.9604 11.8358 18.2525 11.8358C20.7295 11.8358 21.3176 13.1636 21.3176 15.6V20.1121H18.8098V16.1548C18.8098 14.7674 18.4744 13.9849 17.6205 13.9849C16.4362 13.9849 15.9441 14.8282 15.9441 16.1542V20.1121H13.4363V11.9424ZM9.13611 20.0055H11.6439V11.8358H9.13611V20.0055ZM12.0031 9.1719C12.0032 9.3821 11.9615 9.59022 11.8805 9.78417C11.7994 9.97811 11.6807 10.154 11.531 10.3017C11.2278 10.603 10.8175 10.7716 10.39 10.7706C9.9633 10.7703 9.55385 10.6021 9.25022 10.3023C9.10114 10.1541 8.98275 9.97804 8.90185 9.78407C8.82095 9.5901 8.77912 9.38207 8.77876 9.1719C8.77876 8.74746 8.94803 8.3412 9.25084 8.04152C9.55421 7.74132 9.96383 7.57301 10.3906 7.5732C10.8182 7.5732 11.2282 7.74184 11.531 8.04152C11.8332 8.3412 12.0031 8.74746 12.0031 9.1719Z" fill="#13395B"/>
<circle cx="58.6821" cy="15.0466" r="14.5466" fill="white" stroke="#13395B"/>
<path d="M59.6171 21.0632V15.5822H61.4662L61.741 13.4362H59.6171V12.0693C59.6171 11.4501 59.7896 11.0261 60.6784 11.0261H61.8045V9.11282C61.2566 9.0541 60.7058 9.02575 60.1548 9.02789C58.5204 9.02789 57.3982 10.0256 57.3982 11.8573V13.4322H55.5612V15.5782H57.4022V21.0632H59.6171Z" fill="#13395B"/>
<circle cx="102.317" cy="15.0466" r="14.5466" fill="white" stroke="#13395B"/>
<g clip-path="url(#clip0_1365_206)">
<path d="M109.13 10.9135C108.641 11.13 108.117 11.2762 107.565 11.3424C108.134 11.0017 108.56 10.4655 108.763 9.83386C108.228 10.1516 107.643 10.3752 107.032 10.4951C106.622 10.0567 106.078 9.76617 105.485 9.66854C104.893 9.57091 104.284 9.67165 103.755 9.95513C103.226 10.2386 102.804 10.689 102.557 11.2363C102.31 11.7836 102.25 12.3972 102.387 12.982C101.303 12.9275 100.243 12.6458 99.2752 12.1551C98.3073 11.6644 97.4533 10.9756 96.7688 10.1335C96.5347 10.5372 96.4001 11.0053 96.4001 11.5039C96.3999 11.9527 96.5104 12.3946 96.7219 12.7905C96.9334 13.1863 97.2393 13.5238 97.6126 13.7731C97.1797 13.7593 96.7564 13.6423 96.3779 13.4319V13.467C96.3779 14.0965 96.5956 14.7066 96.9942 15.1938C97.3927 15.681 97.9476 16.0153 98.5646 16.14C98.1631 16.2487 97.7421 16.2647 97.3334 16.1868C97.5075 16.7284 97.8466 17.202 98.3032 17.5414C98.7599 17.8807 99.3112 18.0687 99.88 18.0792C98.9144 18.8372 97.7219 19.2483 96.4943 19.2465C96.2769 19.2466 96.0596 19.2339 95.8437 19.2085C97.0897 20.0097 98.5402 20.4349 100.022 20.4332C105.036 20.4332 107.778 16.2798 107.778 12.6777C107.778 12.5606 107.775 12.4424 107.77 12.3254C108.303 11.9398 108.763 11.4623 109.129 10.9152L109.13 10.9135Z" fill="#13395B"/>
</g>
<circle cx="145.952" cy="15.0466" r="14.5466" fill="white" stroke="#13395B"/>
<path d="M151.148 11.6687C149.403 8.97788 145.839 8.1779 143.076 9.85059C140.385 11.5233 139.512 15.1595 141.258 17.8504L141.403 18.0686L140.821 20.2503L143.003 19.6685L143.221 19.814C144.167 20.323 145.185 20.614 146.203 20.614C147.294 20.614 148.385 20.323 149.33 19.7412C152.021 17.9958 152.821 14.4323 151.148 11.6687ZM149.621 17.2686C149.33 17.7049 148.966 17.9958 148.457 18.0686C148.166 18.0686 147.803 18.214 146.348 17.6322C145.112 17.0504 144.094 16.105 143.367 15.0141C142.93 14.505 142.712 13.8505 142.639 13.196C142.639 12.6142 142.857 12.1051 143.221 11.7415C143.367 11.596 143.512 11.5233 143.657 11.5233H144.021C144.167 11.5233 144.312 11.5233 144.385 11.8142C144.53 12.1778 144.894 13.0505 144.894 13.1232C144.967 13.196 144.967 13.3414 144.894 13.4141C144.967 13.5596 144.894 13.705 144.821 13.7778C144.748 13.8505 144.676 13.9959 144.603 14.0687C144.457 14.1414 144.385 14.2868 144.457 14.4323C144.748 14.8686 145.112 15.305 145.476 15.6686C145.912 16.0322 146.348 16.3232 146.857 16.5413C147.003 16.6141 147.148 16.6141 147.221 16.4686C147.294 16.3232 147.657 15.9595 147.803 15.8141C147.948 15.6686 148.021 15.6686 148.166 15.7413L149.33 16.3232C149.475 16.3959 149.621 16.4686 149.694 16.5413C149.766 16.7595 149.766 17.0504 149.621 17.2686Z" fill="#13395B"/>
<defs>
<clipPath id="clip0_1365_206">
<rect width="14.0436" height="14.0436" fill="white" transform="translate(95.2953 8.02485)"/>
</clipPath>
</defs>
</svg>
