<svg width="20" height="21" viewBox="0 0 20 21" fill="none" xmlns="http://www.w3.org/2000/svg">
<path d="M10.0292 0C13.4479 0 16.229 2.64874 16.229 5.90462C16.229 8.11207 14.9539 10.0431 13.1004 11.0368C16.8665 12.1957 19.6477 15.3412 19.9952 19.2591C20.111 20.252 18.1408 20.3076 18.0833 19.3694C17.6775 15.4515 14.143 12.4718 10.0292 12.4718C5.85714 12.4718 2.38104 15.4515 1.9751 19.3694C1.85926 20.3076 -0.110936 20.252 0.00491315 19.2591C0.410784 15.3961 3.19181 12.1957 6.8997 11.0368C5.04536 10.0439 3.77106 8.11187 3.77106 5.90462C3.77106 2.64874 6.61049 0 10.0292 0ZM10.0292 1.87637C7.65394 1.87637 5.74121 3.69718 5.74121 5.90446C5.74121 8.1666 7.65305 9.98824 10.0292 9.98824C12.347 9.98824 14.2587 8.16744 14.2587 5.90446C14.2587 3.69702 12.3468 1.87637 10.0292 1.87637Z" fill="#3F5E7A"/>
</svg>
