<svg width="161" height="31" viewBox="0 0 161 31" fill="none" xmlns="http://www.w3.org/2000/svg">
<circle cx="15.0466" cy="15.0466" r="14.5466" fill="white" stroke="#1C7F71"/>
<path fill-rule="evenodd" clip-rule="evenodd" d="M13.4361 11.9424H15.7646V13.1022C16.1 12.4352 16.9601 11.8358 18.2523 11.8358C20.7293 11.8358 21.3174 13.1637 21.3174 15.6V20.1121H18.8096V16.1548C18.8096 14.7674 18.4742 13.985 17.6203 13.985C16.436 13.985 15.9439 14.8282 15.9439 16.1542V20.1121H13.4361V11.9424ZM9.13588 20.0055H11.6437V11.8358H9.13588V20.0055ZM12.0029 9.17191C12.003 9.38211 11.9613 9.59023 11.8803 9.78417C11.7992 9.97812 11.6804 10.154 11.5308 10.3017C11.2276 10.603 10.8172 10.7717 10.3898 10.7706C9.96306 10.7703 9.55362 10.6021 9.24998 10.3023C9.1009 10.1541 8.98252 9.97805 8.90161 9.78408C8.82071 9.5901 8.77888 9.38208 8.77852 9.17191C8.77852 8.74747 8.94779 8.34121 9.25061 8.04153C9.55398 7.74132 9.96359 7.57301 10.3904 7.5732C10.818 7.5732 11.228 7.74185 11.5308 8.04153C11.833 8.34121 12.0029 8.74747 12.0029 9.17191Z" fill="#1C7F71"/>
<circle cx="58.6819" cy="15.0466" r="14.5466" fill="white" stroke="#1C7F71"/>
<path d="M59.6169 21.0632V15.5822H61.466L61.7408 13.4362H59.6169V12.0693C59.6169 11.4501 59.7894 11.0261 60.6782 11.0261H61.8043V9.11283C61.2564 9.05411 60.7056 9.02575 60.1546 9.0279C58.5202 9.0279 57.398 10.0257 57.398 11.8573V13.4322H55.561V15.5782H57.402V21.0632H59.6169Z" fill="#1C7F71"/>
<circle cx="102.317" cy="15.0466" r="14.5466" fill="white" stroke="#1C7F71"/>
<g clip-path="url(#clip0_1311_1708)">
<path d="M109.13 10.9135C108.641 11.13 108.116 11.2763 107.565 11.3424C108.134 11.0017 108.56 10.4655 108.763 9.83387C108.228 10.1516 107.643 10.3752 107.032 10.4951C106.622 10.0567 106.078 9.76618 105.485 9.66855C104.893 9.57091 104.284 9.67166 103.755 9.95514C103.225 10.2386 102.804 10.689 102.557 11.2363C102.31 11.7836 102.25 12.3973 102.387 12.982C101.303 12.9275 100.243 12.6458 99.2752 12.1551C98.3072 11.6644 97.4533 10.9756 96.7687 10.1335C96.5347 10.5372 96.4001 11.0053 96.4001 11.5039C96.3998 11.9527 96.5103 12.3946 96.7218 12.7905C96.9333 13.1863 97.2393 13.5238 97.6125 13.7731C97.1797 13.7593 96.7564 13.6423 96.3778 13.4319V13.467C96.3778 14.0965 96.5955 14.7066 96.9941 15.1938C97.3927 15.681 97.9475 16.0153 98.5645 16.14C98.163 16.2487 97.742 16.2647 97.3334 16.1868C97.5075 16.7284 97.8466 17.2021 98.3032 17.5414C98.7598 17.8807 99.3111 18.0688 99.88 18.0792C98.9144 18.8372 97.7219 19.2484 96.4943 19.2465C96.2768 19.2466 96.0596 19.2339 95.8436 19.2085C97.0897 20.0097 98.5402 20.4349 100.022 20.4332C105.036 20.4332 107.778 16.2799 107.778 12.6777C107.778 12.5607 107.775 12.4425 107.769 12.3254C108.303 11.9398 108.763 11.4623 109.129 10.9152L109.13 10.9135Z" fill="#1C7F71"/>
</g>
<circle cx="145.952" cy="15.0466" r="14.5466" fill="white" stroke="#1C7F71"/>
<path d="M151.148 11.6687C149.403 8.97789 145.839 8.17791 143.076 9.8506C140.385 11.5233 139.512 15.1596 141.258 17.8504L141.403 18.0686L140.821 20.2503L143.003 19.6685L143.221 19.814C144.167 20.3231 145.185 20.614 146.203 20.614C147.294 20.614 148.385 20.3231 149.33 19.7413C152.021 17.9958 152.821 14.4323 151.148 11.6687ZM149.621 17.2686C149.33 17.7049 148.967 17.9959 148.457 18.0686C148.167 18.0686 147.803 18.214 146.348 17.6322C145.112 17.0504 144.094 16.105 143.367 15.0141C142.93 14.505 142.712 13.8505 142.639 13.196C142.639 12.6142 142.858 12.1051 143.221 11.7415C143.367 11.596 143.512 11.5233 143.658 11.5233H144.021C144.167 11.5233 144.312 11.5233 144.385 11.8142C144.53 12.1778 144.894 13.0505 144.894 13.1232C144.967 13.196 144.967 13.3414 144.894 13.4141C144.967 13.5596 144.894 13.705 144.821 13.7778C144.748 13.8505 144.676 13.9959 144.603 14.0687C144.458 14.1414 144.385 14.2869 144.458 14.4323C144.748 14.8687 145.112 15.305 145.476 15.6686C145.912 16.0323 146.348 16.3232 146.857 16.5413C147.003 16.6141 147.148 16.6141 147.221 16.4686C147.294 16.3232 147.657 15.9595 147.803 15.8141C147.948 15.6686 148.021 15.6686 148.167 15.7414L149.33 16.3232C149.476 16.3959 149.621 16.4686 149.694 16.5413C149.767 16.7595 149.767 17.0504 149.621 17.2686Z" fill="#1C7F71"/>
<defs>
<clipPath id="clip0_1311_1708">
<rect width="14.0436" height="14.0436" fill="white" transform="translate(95.2954 8.02486)"/>
</clipPath>
</defs>
</svg>
